<svg xmlns="http://www.w3.org/2000/svg" version="1.1" xmlns:xlink="http://www.w3.org/1999/xlink" width="1000" height="1000"><g clip-path="url(#SvgjsClipPath1070)"><rect width="1000" height="1000" fill="#011822"></rect><g transform="matrix(13.72549019607843,0,0,13.72549019607843,150,150)"><svg xmlns="http://www.w3.org/2000/svg" version="1.1" xmlns:xlink="http://www.w3.org/1999/xlink" width="51" height="51"><svg width="51" height="51" viewBox="0 0 51 51" fill="none" xmlns="http://www.w3.org/2000/svg">
<path d="M24.2637 33.3046L13.3 26.6018L5.58662 50.7986L24.2637 33.3046Z" fill="#D4F9F2"></path>
<path d="M50.9841 8.27493L28.9809 12.6084L21.7803 0L17.0096 14.9688L0 18.3224L34.6299 15.3919L25.1643 24.2592L33.435 38.9118L49.107 48.4916L35.0401 23.2126L50.9841 8.27493Z" fill="#D4F9F2"></path>
<path d="M21.7803 0L26.2522 14.7372L40.707 12.8845L30.6752 24.2458L33.435 38.9118L49.107 48.4916L35.0401 23.2126L50.9841 8.27493L28.9809 12.6084L21.7803 0Z" fill="url(#paint0_linear_8_31)"></path>
<path d="M5.58662 50.7986L19.7025 30.5166L24.2637 33.3046L5.58662 50.7986Z" fill="url(#paint1_linear_8_31)"></path>
<defs>
<linearGradient id="paint0_linear_8_31" x1="36.3822" y1="48.4916" x2="36.3822" y2="0" gradientUnits="userSpaceOnUse">
<stop stop-color="#4AEDD1"></stop>
<stop offset="0.23" stop-color="#44E9D4"></stop>
<stop offset="0.52" stop-color="#34DFDE"></stop>
<stop offset="0.85" stop-color="#19CEEE"></stop>
<stop offset="0.99" stop-color="#0BC5F7"></stop>
</linearGradient>
<linearGradient id="paint1_linear_8_31" x1="14.9229" y1="50.7986" x2="14.9229" y2="30.5166" gradientUnits="userSpaceOnUse">
<stop stop-color="#4AEDD1"></stop>
<stop offset="0.23" stop-color="#44E9D4"></stop>
<stop offset="0.52" stop-color="#34DFDE"></stop>
<stop offset="0.85" stop-color="#19CEEE"></stop>
<stop offset="0.99" stop-color="#0BC5F7"></stop>
</linearGradient>
<clipPath id="SvgjsClipPath1070"><rect width="1000" height="1000" x="0" y="0" rx="350" ry="350"></rect></clipPath></defs>
</svg></svg></g></g></svg>